<svg width="20" height="20" viewBox="0 0 20 20" fill="none" xmlns="http://www.w3.org/2000/svg">
<path d="M6.11644 8.40417L10.0005 4.5203L13.8865 8.40622L16.1465 6.14623L10.0005 0L3.85645 6.14417L6.11644 8.40417Z" fill="#F3BA2F"/>
<path d="M4.52021 9.9997L2.26025 7.73975L0.000188001 9.99981L2.26014 12.2598L4.52021 9.9997Z" fill="#F3BA2F"/>
<path d="M6.11585 11.5959L9.99987 15.4798L13.8858 11.594L16.147 13.8527L16.1459 13.854L9.99987 20.0001L3.8557 13.856L3.85254 13.8529L6.11585 11.5959Z" fill="#F3BA2F"/>
<path d="M17.7404 12.2608L20.0005 10.0007L17.7405 7.74078L15.4805 10.0008L17.7404 12.2608Z" fill="#F3BA2F"/>
<path d="M12.2924 9.99877H12.2933L10 7.70544L8.3052 9.40024H8.30504L8.11043 9.59501L7.70873 9.99671L7.70557 9.99987L7.70873 10.0032L10 12.2945L12.2933 10.0011L12.2944 9.99987L12.2924 9.99877Z" fill="#F3BA2F"/>
</svg>
