<svg width="20" height="20" viewBox="0 0 20 20" fill="none" xmlns="http://www.w3.org/2000/svg">
<circle cx="10" cy="10" r="10" fill="#5817C1"/>
<path d="M10.0647 13.2359L7.54816 11.4726C7.52003 11.4528 7.48545 11.4867 7.5045 11.5152L10.0246 15.2951C10.0861 15.3873 10.2216 15.3873 10.2831 15.2951L12.8032 11.5152C12.8223 11.4867 12.7877 11.4528 12.7595 11.4726L10.243 13.2359C10.1894 13.2734 10.1182 13.2734 10.0647 13.2359Z" fill="white"/>
<path d="M13.1326 9.91547L10.2896 4.78256C10.2304 4.67583 10.077 4.67583 10.0178 4.78256L7.1748 9.91547H13.1326Z" fill="white"/>
<path d="M10.1538 9.91547H13.1327L10.2897 4.78256C10.2601 4.7292 10.2069 4.70251 10.1538 4.70251V9.91547Z" fill="#E8E8E8"/>
<path d="M10.0646 12.1077L7.22195 10.1159C7.1337 10.0541 7.1337 9.92334 7.22195 9.8615L10.0646 7.86968C10.1181 7.83218 10.1893 7.83218 10.2428 7.86968L13.0855 9.8615C13.1737 9.92334 13.1737 10.0541 13.0855 10.1159L10.2428 12.1077C10.1893 12.1452 10.1181 12.1452 10.0646 12.1077Z" fill="#E8E8E8"/>
<path d="M10.2429 12.1077L13.0856 10.1159C13.1738 10.0541 13.1738 9.92334 13.0856 9.8615L10.2429 7.86968C10.2162 7.85093 10.185 7.84155 10.1538 7.84155V12.1358C10.185 12.1358 10.2162 12.1265 10.2429 12.1077Z" fill="white"/>
<path d="M10.283 15.2951L12.8031 11.5152C12.8222 11.4866 12.7876 11.4528 12.7595 11.4726L10.2429 13.2359C10.2162 13.2546 10.185 13.264 10.1538 13.264V15.3642C10.2031 15.3643 10.2523 15.3412 10.283 15.2951Z" fill="#E8E8E8"/>
</svg>
