<svg width="50" height="50" viewBox="0 0 50 50" fill="none" xmlns="http://www.w3.org/2000/svg">
<path d="M24.7106 35.0166L16.5318 29.2857C16.4404 29.2217 16.3279 29.3315 16.3899 29.4244L24.5803 41.709C24.7801 42.0086 25.2204 42.0086 25.4202 41.709L33.6107 29.4244C33.6726 29.3315 33.5602 29.2217 33.4688 29.2857L25.29 35.0166C25.1159 35.1384 24.8845 35.1384 24.7106 35.0166Z" fill="white"/>
<path d="M34.6816 24.225L25.4418 7.54312C25.2496 7.19624 24.7509 7.19624 24.5587 7.54312L15.3188 24.225H34.6816Z" fill="white"/>
<path d="M25 24.225H34.6812L25.4415 7.54311C25.3454 7.36968 25.1727 7.28296 25 7.28296V24.225Z" fill="#E8E8E8"/>
<path d="M24.7105 31.3499L15.4719 24.8765C15.1851 24.6755 15.1851 24.2507 15.4719 24.0497L24.7105 17.5763C24.8843 17.4544 25.1159 17.4544 25.2898 17.5763L34.5284 24.0497C34.8152 24.2507 34.8152 24.6755 34.5284 24.8765L25.2898 31.3499C25.1159 31.4718 24.8843 31.4718 24.7105 31.3499Z" fill="#E8E8E8"/>
<path d="M25.2896 31.3499L34.5282 24.8765C34.815 24.6755 34.815 24.2507 34.5282 24.0497L25.2896 17.5763C25.2027 17.5153 25.1014 17.4849 25 17.4849V31.4412C25.1014 31.4413 25.2027 31.4108 25.2896 31.3499Z" fill="white"/>
<path d="M25.4199 41.7088L33.6104 29.4243C33.6723 29.3314 33.5599 29.2215 33.4685 29.2856L25.2896 35.0165C25.2027 35.0774 25.1014 35.1079 25 35.1079V41.9335C25.1601 41.9336 25.3201 41.8587 25.4199 41.7088Z" fill="#E8E8E8"/>
</svg>
