<svg width="110" height="17" viewBox="0 0 110 17" fill="none" xmlns="http://www.w3.org/2000/svg">
<path d="M30.5372 5.72988H26.2932V7.45368H30.3022V9.3343H26.2932V11.215H30.7726V13.0954H24.2559V3.84958H30.5372V5.72988ZM38.7056 6.2521C38.5052 6.00842 38.2595 5.8212 37.9678 5.69049C37.676 5.5601 37.3388 5.49491 36.9557 5.49491C36.5726 5.49491 36.2179 5.5688 35.8915 5.71676C35.565 5.86506 35.282 6.07172 35.0426 6.3371C34.803 6.60281 34.6156 6.91801 34.481 7.28373C34.346 7.64945 34.2786 8.04571 34.2786 8.47235C34.2786 8.9077 34.346 9.30601 34.481 9.66729C34.6156 10.0289 34.801 10.3422 35.036 10.6076C35.2711 10.8733 35.5474 11.08 35.8654 11.2279C36.1828 11.3759 36.5248 11.45 36.8903 11.45C37.3084 11.45 37.6782 11.3629 38.0003 11.1885C38.3225 11.015 38.5882 10.7709 38.7971 10.4573L40.4946 11.7242C40.1031 12.2725 39.6067 12.6775 39.006 12.9384C38.4052 13.1997 37.7869 13.3303 37.1516 13.3303C36.4289 13.3303 35.763 13.2175 35.1536 12.9908C34.544 12.7645 34.0173 12.4401 33.5734 12.0179C33.1294 11.5959 32.7835 11.0842 32.5352 10.4835C32.287 9.88283 32.1631 9.21266 32.1631 8.47236C32.1631 7.73239 32.287 7.06171 32.5352 6.46116C32.7835 5.86046 33.1294 5.34918 33.5734 4.92679C34.0173 4.5046 34.544 4.18018 35.1536 3.95388C35.763 3.72759 36.4289 3.61428 37.1516 3.61428C37.4127 3.61428 37.6847 3.63834 37.9678 3.68596C38.2506 3.73424 38.5295 3.81018 38.8035 3.91464C39.0778 4.01891 39.3411 4.15849 39.5935 4.33256C39.8461 4.50682 40.0724 4.72014 40.2727 4.9722L38.7056 6.2521ZM48.7278 10.2746H48.7539V3.84958H50.7913V13.0954H48.1271L44.0919 6.51337H44.066V13.0954H42.0285V3.84958H44.7971L48.7278 10.2746ZM62.5307 11.6459C62.0868 12.2466 61.5731 12.6775 60.9895 12.9388C60.4062 13.1997 59.7753 13.3302 59.0959 13.3302C58.3912 13.3302 57.7443 13.2105 57.1567 12.9715C56.569 12.7318 56.0667 12.3968 55.6495 11.9659C55.2314 11.5349 54.9049 11.0213 54.6702 10.425C54.4351 9.82855 54.3173 9.17766 54.3173 8.47235C54.3173 7.76702 54.4351 7.11869 54.6702 6.5265C54.9049 5.93451 55.2314 5.42321 55.6495 4.99213C56.0667 4.56122 56.569 4.22384 57.1567 3.97998C57.7443 3.73627 58.3912 3.61426 59.0959 3.61426C59.7229 3.61426 60.3086 3.72519 60.8528 3.94721C61.3968 4.16956 61.8731 4.54161 62.2824 5.06381L61.5774 5.6514C61.2902 5.21622 60.9221 4.89845 60.4738 4.69827C60.0254 4.49791 59.5662 4.39791 59.0959 4.39791C58.4953 4.39791 57.9533 4.50253 57.4704 4.71125C56.9874 4.92012 56.576 5.20751 56.2365 5.57323C55.8969 5.93876 55.6361 6.36984 55.4539 6.86613C55.2709 7.3624 55.179 7.89774 55.179 8.47235C55.179 9.04694 55.2709 9.58229 55.4539 10.0789C55.6361 10.575 55.8969 11.0059 56.2365 11.3716C56.576 11.7372 56.9874 12.0245 57.4704 12.2334C57.9533 12.4425 58.4953 12.5468 59.0959 12.5468C59.3312 12.5468 59.5749 12.5188 59.8275 12.4621C60.0799 12.4055 60.3258 12.3184 60.5651 12.2008C60.8048 12.0834 61.0332 11.9351 61.2508 11.7568C61.4683 11.5785 61.6598 11.3633 61.8254 11.1105L62.5307 11.6459ZM68.2237 4.78986L66.0688 9.85665H70.3132L68.2237 4.78986ZM67.8187 3.84955H68.7066L72.5984 13.0955H71.6322L70.6265 10.6403H65.7295L64.6846 13.0955H63.7835L67.8187 3.84955ZM75.6849 7.92401H77.6437C77.8874 7.92401 78.1268 7.89567 78.362 7.83902C78.5966 7.78236 78.8057 7.69106 78.9886 7.56479C79.1714 7.43831 79.3194 7.27108 79.4327 7.062C79.5457 6.85313 79.6027 6.59645 79.6027 6.2915C79.6027 5.99542 79.5436 5.74318 79.426 5.53414C79.3086 5.32507 79.1564 5.15322 78.969 5.01824C78.7816 4.88325 78.5664 4.78512 78.3227 4.72453C78.0787 4.6636 77.8352 4.63289 77.5915 4.63289H75.6849V7.92401ZM74.8226 3.84958H77.4869C77.8091 3.84958 78.1465 3.88661 78.499 3.96016C78.8518 4.03422 79.1736 4.16291 79.4653 4.34551C79.7569 4.52863 79.9964 4.77879 80.1836 5.09656C80.371 5.4145 80.4643 5.81282 80.4643 6.2915C80.4643 6.70943 80.3882 7.07072 80.236 7.37534C80.0832 7.6803 79.8786 7.93032 79.622 8.1264C79.3649 8.32232 79.069 8.46805 78.734 8.56363C78.3987 8.6597 78.0485 8.70731 77.6828 8.70731H75.6849V13.0954H74.8226V3.84958ZM84.0558 3.84926H83.1938V13.0954H84.0558V3.84926ZM86.4912 3.84957H93.6738V4.63287H90.5137V13.0954H89.6518V4.63287H86.4912L86.4912 3.84957ZM98.0592 4.78986L95.9047 9.85665H100.149L98.0592 4.78986ZM97.6546 3.84955H98.5425L102.434 13.0955H101.468L100.462 10.6403H95.5651L94.5205 13.0955H93.6191L97.6546 3.84955ZM105.69 12.3119H110V13.0954H104.828V3.84958H105.69V12.3119Z" fill="white" fill-opacity="0.2"/>
<path d="M17.2415 16.8857C17.0359 16.7681 16.8328 16.6468 16.6309 16.523C15.5689 15.8708 14.5625 15.1334 13.6217 14.3209C13.0648 13.8402 12.5304 13.333 12.0216 12.8009C11.4661 12.2193 10.9414 11.6083 10.4485 10.9704C10.4221 10.9697 10.3956 10.9683 10.3693 10.9677C10.363 10.9677 10.357 10.9677 10.3509 10.9673C10.259 10.9659 10.1672 10.9647 10.0753 10.9637C9.96659 10.9627 9.85753 10.9617 9.74883 10.9624C9.64318 10.9627 9.53739 10.9648 9.43192 10.9666C9.36451 10.9677 9.29727 10.9694 9.23003 10.9711C8.29193 12.1937 7.22634 13.3285 6.04097 14.3511C4.9597 15.2848 3.77908 16.1241 2.50684 16.8546C3.64667 16.3671 4.83034 15.9937 6.04097 15.7421C8.51686 15.2274 11.0987 15.2134 13.6217 15.7428C13.6869 15.7565 13.7521 15.7744 13.8173 15.7887C14.5617 15.9534 15.3 16.1667 16.0288 16.427C16.2066 16.4905 16.3841 16.5548 16.5606 16.6238C16.8096 16.7214 17.0727 16.826 17.3191 16.9354C17.2978 16.9204 17.2627 16.9007 17.2415 16.8857" fill="white" fill-opacity="0.2"/>
<path d="M16.6703 16.4668C15.5726 15.6359 14.5518 14.7102 13.6215 13.7006C13.0536 13.0841 12.5195 12.4372 12.0216 11.7628C11.8424 11.5198 11.6692 11.2725 11.4998 11.0225C11.4351 11.0177 11.3704 11.0138 11.3059 11.0094C11.2015 11.0027 11.0972 10.9961 10.9927 10.9904C10.8921 10.9855 10.7914 10.9821 10.6905 10.9785C10.6099 10.9755 10.5292 10.9728 10.4485 10.9705C10.9405 11.6077 11.4656 12.2188 12.0216 12.8011C12.5304 13.333 13.0648 13.8402 13.6215 14.321C14.5624 15.1336 15.5687 15.8709 16.6309 16.5231C16.8326 16.6468 17.0359 16.7682 17.2415 16.8858C17.0488 16.7491 16.8587 16.6091 16.6703 16.4668ZM9.11627 10.9738C9.0113 10.9772 8.90654 10.9821 8.80174 10.9868C8.69612 10.9917 8.59065 10.9961 8.48518 11.0021C8.38073 11.0084 8.27647 11.0165 8.17203 11.0241C8.16118 11.0252 8.15032 11.0261 8.13944 11.0269C7.50666 11.9615 6.8052 12.8478 6.04086 13.6784C4.93279 14.8822 3.68223 15.9791 2.29736 16.9422C2.36665 16.9115 2.4373 16.8845 2.50694 16.8548C3.779 16.1242 4.95977 15.2849 6.0409 14.3513C7.22626 13.3287 8.29184 12.1937 9.22994 10.971C9.19206 10.9721 9.15417 10.9721 9.11629 10.9738" fill="white" fill-opacity="0.2"/>
<path d="M8.13979 11.0265C8.5939 10.3559 9.012 9.66333 9.39087 8.95237C8.22853 6.1775 7.59982 3.14563 7.62219 0.000244141H7.61962C7.09758 5.14127 4.43299 9.984 0.0541048 13.1471L0.05376 13.1474C0.0353172 13.1608 0.0182532 13.1751 0 13.1881L0.379026 13.8451L1.89804 16.4756L2.15419 16.9191L2.19277 16.9862C2.22741 16.9709 2.26275 16.9575 2.29739 16.9422C3.68226 15.9792 4.93282 14.8823 6.04089 13.6784C6.80532 12.8479 7.50684 11.9616 8.13964 11.0269L8.13979 11.0265Z" fill="white" fill-opacity="0.2"/>
<path d="M9.39085 8.95225C9.53948 8.67288 9.68063 8.38993 9.81749 8.10529C8.61641 5.61404 7.85306 2.87859 7.6283 0.00012207H7.62217C7.59964 3.14566 8.22833 6.17737 9.39085 8.95225Z" fill="white" fill-opacity="0.2"/>
<path d="M19.5054 13.1086C15.3709 10.0631 12.5577 5.34837 12.0387 0H7.62842C7.85335 2.87864 8.6167 5.61409 9.8176 8.10534C10.3072 9.12056 10.8702 10.0945 11.4989 11.0208L11.4999 11.0224C11.6694 11.2724 11.8426 11.5197 12.0218 11.7627C12.5197 12.4371 13.0538 13.084 13.6217 13.7006C14.5521 14.7102 15.573 15.6359 16.6705 16.4668C16.8589 16.6091 17.049 16.7491 17.2417 16.8858C17.2726 16.9034 17.2883 16.918 17.3192 16.9354L17.4287 16.7747L19.1706 13.7587L19.5332 13.1303C19.5238 13.1233 19.5151 13.116 19.5058 13.109L19.5054 13.1086Z" fill="white" fill-opacity="0.2"/>
</svg>
