<svg width="95" height="19" viewBox="0 0 95 19" fill="none" xmlns="http://www.w3.org/2000/svg">
<g clip-path="url(#clip0)">
<path d="M5.73769 7.98396L9.43359 4.29429L13.1314 7.98591L15.282 5.83892L9.43359 0L3.58716 5.83697L5.73769 7.98396Z" fill="white" fill-opacity="0.2"/>
<path d="M4.21885 9.49974L2.06836 7.35278L-0.0822394 9.49984L2.06825 11.6468L4.21885 9.49974Z" fill="white" fill-opacity="0.2"/>
<path d="M5.73767 11.0161L9.43357 14.7058L13.1313 11.0143L15.283 13.1601L15.282 13.1613L9.43357 19L3.58699 13.1632L3.58398 13.1602L5.73767 11.0161Z" fill="white" fill-opacity="0.2"/>
<path d="M16.7989 11.6477L18.9495 9.50061L16.799 7.35366L14.6484 9.50072L16.7989 11.6477Z" fill="white" fill-opacity="0.2"/>
<path d="M11.6149 9.49885H11.6158L9.43354 7.32019L7.82083 8.93025H7.82068L7.6355 9.11528L7.25325 9.4969L7.25024 9.4999L7.25325 9.50305L9.43354 11.6798L11.6158 9.5011L11.6168 9.4999L11.6149 9.49885Z" fill="white" fill-opacity="0.2"/>
<path d="M22.302 4.60388H26.9793C28.1402 4.60388 29.018 4.90131 29.6129 5.49617C30.0733 5.95688 30.3035 6.52788 30.3035 7.20903V7.23784C30.3035 7.52567 30.2678 7.78003 30.1961 8.00062C30.1246 8.22152 30.029 8.42036 29.9095 8.59789C29.7903 8.77556 29.6517 8.93148 29.4942 9.06564C29.3365 9.2001 29.1671 9.31535 28.9857 9.41109C29.5692 9.63199 30.0286 9.93167 30.3634 10.3107C30.6982 10.69 30.8658 11.2153 30.8658 11.8869V11.9155C30.8658 12.3762 30.7771 12.7792 30.5996 13.1248C30.4221 13.4701 30.1677 13.7581 29.8366 13.9884C29.5055 14.2188 29.1073 14.3913 28.6419 14.5066C28.1765 14.6217 27.6608 14.6792 27.0949 14.6792H22.302V4.60388ZM26.5117 8.67712C27.002 8.67712 27.3913 8.59338 27.6795 8.42531C27.9678 8.25739 28.1119 7.98622 28.1119 7.6121V7.58329C28.1119 7.24759 27.9868 6.99098 27.737 6.8133C27.4871 6.63577 27.1266 6.54694 26.6558 6.54694H24.4644V8.67712H26.5117ZM27.1029 12.7363C27.593 12.7363 27.9772 12.6477 28.2562 12.47C28.5349 12.2925 28.6744 12.0165 28.6744 11.6423V11.6136C28.6744 11.2778 28.5445 11.0115 28.2851 10.8147C28.0255 10.6182 27.6075 10.5198 27.0307 10.5198H24.4644V12.7364L27.1029 12.7363Z" fill="white" fill-opacity="0.2"/>
<path d="M33.6514 4.60388H35.8718V14.6795H33.6514V4.60388Z" fill="white" fill-opacity="0.2"/>
<path d="M39.2346 4.60388H41.2816L46.0106 10.8076V4.60388H48.202V14.6795H46.3135L41.4259 8.27434V14.6795H39.2346V4.60388Z" fill="white" fill-opacity="0.2"/>
<path d="M54.9242 4.53198H56.9713L61.2967 14.6794H58.9754L58.0527 12.4197H53.7851L52.8625 14.6794H50.5986L54.9242 4.53198ZM57.2598 10.462L55.9188 7.19475L54.5783 10.462H57.2598Z" fill="white" fill-opacity="0.2"/>
<path d="M63.6934 4.60388H65.7408L70.4695 10.8076V4.60388H72.6609V14.6795H70.7723L65.8848 8.27434V14.6795H63.6934V4.60388Z" fill="white" fill-opacity="0.2"/>
<path d="M80.6515 14.852C79.911 14.852 79.2241 14.7176 78.5896 14.4491C77.9552 14.1806 77.4074 13.8134 76.9461 13.3479C76.4846 12.8826 76.124 12.3332 75.8649 11.6999C75.6053 11.0665 75.4756 10.39 75.4756 9.67026V9.64159C75.4756 8.92188 75.6053 8.24793 75.8649 7.6193C76.1242 6.99083 76.4846 6.43903 76.9461 5.96408C77.4073 5.48912 77.9601 5.1147 78.6039 4.84128C79.2477 4.56786 79.9594 4.43115 80.7379 4.43115C81.2085 4.43115 81.6386 4.46972 82.0279 4.54625C82.4172 4.62324 82.7703 4.72858 83.0877 4.86289C83.4051 4.99735 83.6979 5.16047 83.9674 5.35226C84.236 5.54434 84.4861 5.75533 84.7168 5.98569L83.3042 7.6121C82.9096 7.25719 82.5086 6.97867 82.1002 6.77728C81.6915 6.57589 81.2327 6.47505 80.7233 6.47505C80.3003 6.47505 79.9086 6.55669 79.5485 6.71981C79.188 6.88293 78.8779 7.10833 78.6183 7.39616C78.359 7.68398 78.1572 8.01758 78.0127 8.39649C77.8689 8.77571 77.7969 9.18104 77.7969 9.61278V9.64144C77.7969 10.0732 77.8689 10.4812 78.0127 10.8648C78.1572 11.2488 78.3562 11.5845 78.6113 11.8723C78.8657 12.1601 79.1734 12.3882 79.5337 12.5562C79.8945 12.7242 80.2909 12.808 80.7233 12.808C81.3002 12.808 81.7875 12.7025 82.1865 12.4913C82.5854 12.2805 82.9821 11.9925 83.376 11.6277L84.789 13.0527C84.5294 13.3311 84.2599 13.5807 83.9816 13.8011C83.7028 14.022 83.3977 14.2114 83.0659 14.3699C82.7345 14.528 82.3714 14.6482 81.9777 14.7296C81.5833 14.8111 81.1413 14.852 80.6515 14.852Z" fill="white" fill-opacity="0.2"/>
<path d="M87.4023 4.60388H95.0002V6.5759H89.5939V8.6198H94.3516V10.5917H89.5939V12.7076H95.0727V14.6795H87.4023V4.60388Z" fill="white" fill-opacity="0.2"/>
</g>
<defs>
<clipPath id="clip0">
<rect width="95" height="19" fill="white"/>
</clipPath>
</defs>
</svg>
