<svg width="134" height="23" viewBox="0 0 134 23" fill="none" xmlns="http://www.w3.org/2000/svg">
<path d="M19.7394 13.751C19.3374 13.9961 18.8685 14.0407 18.5112 13.8401C18.0647 13.5727 17.7967 12.9709 17.7967 12.1463V9.62791C17.7967 8.42442 17.3278 7.55523 16.5239 7.33236C15.1618 6.9312 14.1346 8.60271 13.755 9.22674L11.3434 13.0824V8.33527C11.3211 7.24321 10.9638 6.5969 10.294 6.39632C9.84736 6.2626 9.17747 6.32946 8.52991 7.31008L3.14847 15.9128C2.43393 14.5533 2.05432 13.0378 2.05432 11.5C2.05432 6.30717 6.22996 2.09496 11.3434 2.09496C16.4569 2.09496 20.6326 6.30717 20.6326 11.5V11.5223V11.5446C20.6772 12.5475 20.3646 13.3498 19.7394 13.751ZM22.6869 11.5V11.4777V11.4554C22.6646 5.14825 17.5734 0 11.3434 0C5.09115 0 0 5.14826 0 11.5C0 17.8295 5.09115 23 11.3434 23C14.224 23 16.9482 21.9079 19.0472 19.9244C19.4714 19.5233 19.4938 18.8769 19.0918 18.4535C18.7122 18.03 18.0647 18.0077 17.6404 18.3866C17.6404 18.3866 17.6404 18.3866 17.6181 18.4089C15.921 20.0136 13.6434 20.9273 11.2988 20.9273C8.55224 20.9273 6.09598 19.7238 4.39893 17.8072L9.24446 10.0514V13.6395C9.24446 15.3556 9.91435 15.9128 10.4726 16.0688C11.0308 16.2248 11.8794 16.1134 12.7949 14.6647L15.4521 10.3634C15.5414 10.2296 15.6084 10.0959 15.6977 10.0068V12.1909C15.6977 13.7955 16.3453 15.0882 17.4618 15.7122C18.4666 16.2917 19.7394 16.2248 20.7889 15.5785C22.084 14.7316 22.7762 13.2607 22.6869 11.5ZM38.4963 7.57752C38.7642 7.73353 39.0098 8.1124 39.0098 8.4467C39.0098 8.98159 38.5632 9.42733 38.0497 9.42733C37.9157 9.42733 37.804 9.38275 37.6924 9.36046C37.0895 8.91473 36.3303 8.625 35.5264 8.625C33.6284 8.625 32.3333 10.1628 32.3333 12.0795C32.3333 13.9961 33.6507 15.5116 35.5264 15.5116C36.4643 15.5116 37.3128 15.1328 37.938 14.531C38.0943 14.4196 38.2953 14.3527 38.4963 14.3527C39.0098 14.3527 39.4118 14.7539 39.4118 15.2665C39.4118 15.6008 39.2108 15.8905 38.9652 16.0465C38.0497 16.8265 36.8215 17.3391 35.5487 17.3391C32.6459 17.3391 30.279 14.9545 30.279 12.0126C30.279 9.07073 32.6459 6.68605 35.5487 6.68605C36.6206 6.66376 37.6477 6.99806 38.4963 7.57752ZM43.8107 9.8062C45.798 9.8062 47.4504 11.4777 47.4504 13.5504C47.4504 15.6008 45.7757 17.3614 43.8107 17.3614C41.734 17.3614 40.0147 15.6231 40.0147 13.5504C40.0147 11.4777 41.734 9.8062 43.8107 9.8062ZM43.7884 15.5116C44.6592 15.5116 45.3961 14.687 45.3961 13.5727C45.3961 12.4583 44.6592 11.7452 43.7884 11.7452C42.8505 11.7452 42.069 12.436 42.069 13.5727C42.069 14.6647 42.8505 15.5116 43.7884 15.5116ZM48.7009 16.2025V10.9428C48.7009 10.3634 49.1475 9.89535 49.728 9.89535C50.2863 9.89535 50.7552 10.3634 50.7552 10.9428V16.2025C50.7552 16.782 50.2863 17.25 49.728 17.25C49.1698 17.25 48.7009 16.7597 48.7009 16.2025ZM48.5446 7.91182C48.5446 7.22093 49.0805 6.68605 49.728 6.68605C50.3979 6.68605 50.9338 7.24322 50.9338 7.91182C50.9338 8.58043 50.3979 9.11531 49.728 9.11531C49.0582 9.09302 48.5446 8.55814 48.5446 7.91182ZM54.6852 13.3498V16.2025C54.6852 16.782 54.2163 17.25 53.6581 17.25C53.0998 17.25 52.6309 16.782 52.6309 16.2025V10.6977C52.6309 10.2519 52.9882 9.89535 53.4348 9.89535C53.8814 9.89535 54.2163 10.2742 54.2163 10.6977C55.0425 9.91763 55.7794 9.8062 56.4716 9.8062C58.5259 9.8062 59.4414 11.344 59.4414 13.1047V16.2025C59.4414 16.782 58.9725 17.25 58.4143 17.25C57.856 17.25 57.3871 16.782 57.3871 16.2025V13.3498C57.3871 12.4583 57.2755 11.7006 55.9803 11.7006C55.0648 11.7006 54.6852 12.4583 54.6852 13.3498ZM66.0956 14.4419C65.85 14.4419 65.6937 14.3304 65.5597 14.1744L63.1705 11.5891V16.2025C63.1705 16.782 62.7015 17.25 62.1433 17.25C61.5851 17.25 61.1161 16.782 61.1161 16.2025V7.06492C61.1831 6.90892 61.3394 6.79748 61.4958 6.79748C61.6744 6.79748 61.8307 6.95349 61.9423 7.06492L65.7607 11.344C65.8724 11.4777 66.0063 11.5446 66.0956 11.5446C66.1626 11.5446 66.3189 11.4777 66.4306 11.344L70.249 7.06492C70.3606 6.95349 70.4946 6.79748 70.6955 6.79748C70.8742 6.79748 71.0305 6.90892 71.0751 7.06492V16.2025C71.0751 16.782 70.6286 17.25 70.048 17.25C69.4897 17.25 69.0208 16.782 69.0208 16.2025V11.5891L66.6316 14.1744C66.4529 14.3304 66.2966 14.4419 66.0956 14.4419ZM75.9653 15.5116C76.8809 15.5116 77.6624 14.687 77.6624 13.5727C77.6624 12.4583 76.8585 11.7229 75.9653 11.7229C75.0722 11.7229 74.3353 12.4806 74.3353 13.5727C74.3353 14.6424 75.0498 15.5116 75.9653 15.5116ZM78.1536 16.4477L78.109 16.2025C77.707 16.9826 76.4343 17.3391 75.6304 17.3391C73.71 17.3391 72.281 15.6008 72.281 13.5281C72.281 11.4777 73.7324 9.78391 75.742 9.78391C76.077 9.78391 77.2381 9.87306 78.1313 10.9205L78.176 10.6754C78.176 10.2296 78.5109 9.87306 78.9575 9.87306C79.4041 9.87306 79.7614 10.2519 79.7614 10.6754V16.4254C79.7614 16.8711 79.4041 17.2277 78.9575 17.2277C78.4886 17.25 78.1536 16.8711 78.1536 16.4477ZM85.4108 11.7006H85.1875C83.8923 11.7674 83.6467 12.5029 83.6467 13.3498V16.2025C83.6467 16.782 83.1778 17.25 82.6196 17.25C82.0613 17.25 81.5924 16.782 81.5924 16.2025V10.6977C81.5924 10.2519 81.9497 9.89535 82.3963 9.89535C82.8429 9.89535 83.1778 10.2742 83.1778 10.6977C83.937 9.9845 84.5622 9.82849 85.1875 9.8062H85.3884C85.8797 9.8062 86.3263 10.2297 86.3263 10.7645C86.3486 11.2548 85.902 11.7006 85.4108 11.7006ZM93.3378 15.7122C93.4271 15.8682 93.4941 16.0242 93.4941 16.2025C93.4941 16.7374 93.0028 17.2277 92.4669 17.2277C92.1096 17.2277 91.797 16.9603 91.5514 16.6483L89.1845 13.907V16.1802C89.1845 16.7597 88.7155 17.2277 88.1573 17.2277C87.5991 17.2277 87.1301 16.7597 87.1301 16.1802V7.82267C87.1301 7.24322 87.5767 6.77519 88.1573 6.77519C88.7379 6.77519 89.1845 7.24322 89.1845 7.82267V13.0378L91.5514 10.4302C91.797 10.1628 92.0873 9.87306 92.4446 9.87306C92.9582 9.87306 93.4271 10.3411 93.4271 10.876C93.4271 11.032 93.3824 11.2103 93.2931 11.344L91.4174 13.3944L93.3378 15.7122ZM97.3571 11.7229C96.7989 11.7229 95.8834 12.0126 95.8834 12.8818H98.8532C98.8309 12.0126 97.893 11.7229 97.3571 11.7229ZM100.037 14.1967H95.8834C95.8834 15.4225 97.0668 15.6231 97.5804 15.6231C97.96 15.6231 98.4959 15.5562 98.9202 15.3556C99.0542 15.2665 99.2551 15.1996 99.4561 15.1996C99.9027 15.1996 100.282 15.5785 100.282 16.0465C100.282 16.3585 100.081 16.626 99.8357 16.782C99.2105 17.25 98.3843 17.3614 97.6027 17.3614C95.5261 17.3614 93.8067 16.2471 93.8067 13.6395C93.8067 11.5891 94.8562 9.8062 97.3124 9.8062C99.2998 9.8062 100.796 11.0988 100.841 13.3944C100.841 13.8178 100.483 14.1967 100.037 14.1967ZM105.753 17.3391H105.195C103.632 17.3391 102.716 16.6483 102.716 14.219V11.7006H102.18C101.689 11.7006 101.265 11.2548 101.265 10.7645C101.265 10.2297 101.711 9.8062 102.18 9.8062H102.716V7.86725C102.716 7.28779 103.163 6.81977 103.743 6.81977C104.302 6.81977 104.771 7.28779 104.771 7.86725V9.8062H105.619C106.11 9.8062 106.535 10.2297 106.535 10.7645C106.535 11.2548 106.088 11.7006 105.619 11.7006H104.771V13.8178C104.771 15.2219 104.838 15.5116 105.463 15.5116H105.753C106.244 15.5116 106.669 15.9128 106.669 16.4254C106.669 16.9157 106.244 17.3391 105.753 17.3391ZM115.69 7.57752C115.958 7.73353 116.203 8.1124 116.203 8.4467C116.203 8.98159 115.757 9.42733 115.243 9.42733C115.109 9.42733 114.998 9.38275 114.886 9.36046C114.283 8.91473 113.524 8.625 112.72 8.625C110.822 8.625 109.527 10.1628 109.527 12.0795C109.527 13.9961 110.844 15.5116 112.72 15.5116C113.658 15.5116 114.506 15.1328 115.131 14.531C115.288 14.4196 115.489 14.3527 115.69 14.3527C116.203 14.3527 116.605 14.7539 116.605 15.2665C116.605 15.6008 116.404 15.8905 116.159 16.0465C115.243 16.8265 114.015 17.3391 112.742 17.3391C109.839 17.3391 107.472 14.9545 107.472 12.0126C107.472 9.07073 109.839 6.68605 112.742 6.68605C113.814 6.66376 114.864 6.99806 115.69 7.57752ZM120.893 15.5116C121.808 15.5116 122.59 14.687 122.59 13.5727C122.59 12.4583 121.786 11.7229 120.893 11.7229C119.977 11.7229 119.262 12.4806 119.262 13.5727C119.262 14.6424 119.999 15.5116 120.893 15.5116ZM123.081 16.4477L123.036 16.2025C122.634 16.9826 121.361 17.3391 120.558 17.3391C118.637 17.3391 117.208 15.6008 117.208 13.5281C117.208 11.4777 118.66 9.78391 120.669 9.78391C121.004 9.78391 122.165 9.87306 123.058 10.9205L123.103 10.6754C123.103 10.2296 123.438 9.87306 123.885 9.87306C124.331 9.87306 124.689 10.2519 124.689 10.6754V16.4254C124.689 16.8711 124.331 17.2277 123.885 17.2277C123.416 17.25 123.081 16.8711 123.081 16.4477ZM130.293 15.5116C131.209 15.5116 131.923 14.6424 131.923 13.5727C131.923 12.4583 131.186 11.7229 130.293 11.7229C129.378 11.7229 128.596 12.4583 128.596 13.5727C128.596 14.687 129.378 15.5116 130.293 15.5116ZM128.596 16.7374V19.345C128.596 19.9244 128.127 20.3924 127.569 20.3924C127.011 20.3924 126.542 19.9244 126.542 19.345V10.6977C126.542 10.2519 126.899 9.89535 127.346 9.89535C127.792 9.89535 128.127 10.2742 128.127 10.7868C128.887 10.0068 129.824 9.8062 130.539 9.8062C132.526 9.8062 134 11.4777 134 13.5504C134 15.6008 132.593 17.3614 130.651 17.3614C130.048 17.3391 129.154 17.1609 128.596 16.7374Z" fill="white" fill-opacity="0.2"/>
</svg>
