<svg width="84" height="19" viewBox="0 0 84 19" fill="none" xmlns="http://www.w3.org/2000/svg">
<path fill-rule="evenodd" clip-rule="evenodd" d="M7.1193 16.2111C7.75962 16.2111 8.35864 16.0957 8.92323 15.8718C8.92323 15.8922 10.0731 17.6497 10.0937 17.6564C9.07603 18.1938 7.93633 18.467 6.78192 18.4504C3.24979 18.4572 0.688477 16.1568 0.688477 12.4993C0.688477 8.81466 3.37372 6.52787 6.78192 6.52787C7.98684 6.52787 8.94389 6.78573 9.90094 7.28787L8.7993 9.12002C8.22094 8.89609 7.6288 8.7943 7.00913 8.7943C4.9229 8.7943 3.30487 10.1039 3.30487 12.4993C3.30487 14.7657 4.86782 16.2111 7.1193 16.2111ZM16.0219 6.52787C19.4921 6.52787 22.0052 8.95037 22.0052 12.4993C22.0052 16.0279 19.4921 18.4504 16.015 18.4504C12.5724 18.4504 10.0593 16.0279 10.0593 12.4993C10.0593 8.95037 12.5724 6.52787 16.0219 6.52787ZM16.0219 8.71288C14.0872 8.71288 12.6757 10.1854 12.6757 12.4993C12.6757 14.7929 14.0872 16.2654 16.0219 16.2654C18.0049 16.2654 19.3957 14.7929 19.3957 12.4993C19.3957 10.1854 18.0049 8.71288 16.0219 8.71288ZM23.6508 18.1925V6.78573H26.2396V18.1857H23.6508V18.1925ZM23.3065 3.27752C23.3334 2.87169 23.5159 2.49113 23.817 2.21307C24.1181 1.93501 24.5153 1.78028 24.928 1.78028C25.3406 1.78028 25.7378 1.93501 26.039 2.21307C26.3401 2.49113 26.5226 2.87169 26.5495 3.27752C26.5496 3.70363 26.3802 4.1128 26.0777 4.41726C25.7752 4.72172 25.3637 4.89721 24.9314 4.90609C24.4992 4.89721 24.0876 4.72172 23.7852 4.41726C23.4827 4.1128 23.3133 3.70363 23.3134 3.27752H23.3065ZM28.498 7.50502C30.1938 6.87683 31.9881 6.54613 33.7996 6.52787C36.7603 6.52787 38.6331 7.63395 38.6331 10.8504V18.1925H36.0786V11.0879C36.0786 9.43895 35.039 8.84859 33.6 8.84859C32.6842 8.84859 31.7685 8.97073 31.0868 9.18109V18.1857H28.5049V7.50502H28.498ZM40.8019 0.678589H43.3908V7.09109C43.9416 6.80609 45.0088 6.52787 46.0278 6.52787C49.3741 6.52787 51.8803 8.63145 51.8803 12.2957C51.8803 15.9804 49.4016 18.4504 45.119 18.4504C43.4459 18.4504 41.9793 18.1111 40.8019 17.7039V0.678589ZM43.3908 16.0279C43.8865 16.1839 44.5406 16.2654 45.1947 16.2654C47.5701 16.2654 49.2708 14.9761 49.2708 12.35C49.2708 10.1311 47.6734 8.82145 45.718 8.82145C44.699 8.82145 43.9141 9.0793 43.3908 9.3643V16.0279ZM59.3645 10.545C59.3645 9.31002 58.4144 8.74002 57.1337 8.74002C55.8049 8.74002 54.7583 9.1268 53.7944 9.66966V7.45073C54.9475 6.83312 56.2414 6.5155 57.5537 6.52787C60.0875 6.52787 61.8914 7.5593 61.8914 10.4161V17.9618C60.7898 18.2468 59.2268 18.4232 57.9186 18.4232C54.9167 18.4232 52.7203 17.5275 52.7203 14.9489C52.7203 12.6282 54.7308 11.495 58.077 11.495H59.3577V10.545H59.3645ZM59.3645 13.1914H58.2629C56.459 13.1914 55.2816 13.7139 55.2816 14.8743C55.2816 16.055 56.3832 16.5164 57.9462 16.5164C58.3386 16.5164 58.8895 16.4689 59.3577 16.3943V13.1982L59.3645 13.1914ZM63.7711 15.105C64.7801 15.8929 66.017 16.3444 67.3032 16.3943C68.4531 16.3943 69.2104 16.0075 69.2104 15.105C69.2104 14.1754 68.5288 13.8429 67.0416 13.4561C64.6318 12.9132 63.6196 11.9632 63.6196 9.97502C63.6196 7.66109 65.396 6.52787 67.7508 6.52787C69.059 6.52787 70.0986 6.80609 71.0695 7.40323V9.7443C70.1468 9.01852 69.0069 8.61304 67.8265 8.59073C66.7042 8.59073 66.1052 9.13359 66.1052 9.88002C66.1052 10.6264 66.5941 11.0064 67.9298 11.3729C70.5737 11.9361 71.7167 12.9132 71.7167 14.9693C71.7167 17.3714 69.8645 18.4504 67.3583 18.4504C66.1012 18.4751 64.8618 18.1556 63.778 17.5275V15.105H63.7711ZM75.2626 13.0693V13.1168C75.4209 15.1525 77.1904 16.2654 79.0013 16.2654C80.5918 16.2654 81.7416 15.8989 82.8914 15.1525V17.3918C81.8449 18.1179 80.3026 18.4504 78.8154 18.4504C75.2075 18.4504 72.7563 16.1839 72.7563 12.5807C72.7563 8.95038 75.1593 6.52787 78.3472 6.52787C81.7209 6.52787 83.3114 8.66538 83.3114 11.78V13.0693H75.2557H75.2626ZM80.8809 11.4204C80.8259 9.64252 79.9377 8.66538 78.2645 8.66538C76.7773 8.66538 75.6826 9.6968 75.3383 11.4204H80.8809Z" fill="white" fill-opacity="0.2"/>
</svg>
