<svg width="86" height="24" viewBox="0 0 86 24" fill="none" xmlns="http://www.w3.org/2000/svg">
<path d="M85.6818 4.42304L84.941 5.42145L84.2043 4.42304H83.8858V6.57567H84.2137V4.96069L84.8427 5.81332H85.038L85.6717 4.95936V6.57567H85.9996V4.42304H85.6818ZM83.3524 6.00391C83.3524 6.36034 83.005 6.62382 82.5686 6.61245C82.1585 6.60443 81.7719 6.43257 81.7719 6.43257L81.8622 6.14702C81.8622 6.14702 82.2568 6.32022 82.5511 6.31688C82.8272 6.31353 83.005 6.19316 83.005 6.00391C83.005 5.77454 82.774 5.71034 82.5006 5.63143C82.1713 5.53714 81.7948 5.42814 81.7948 4.98477C81.7948 4.63168 82.1113 4.39896 82.5686 4.38759C82.8965 4.37823 83.2898 4.54207 83.2898 4.54207L83.1989 4.82628C83.1989 4.82628 82.84 4.67515 82.5868 4.68183C82.3147 4.6912 82.139 4.8002 82.139 4.98477C82.139 5.2001 82.3686 5.26764 82.6353 5.3412C82.9713 5.43616 83.3524 5.54516 83.3524 6.00391ZM75.1745 12.4257C75.1745 13.6823 74.4277 14.4219 73.1981 14.4219C72.2917 14.4219 71.7401 13.939 71.7401 13.1667C71.7401 12.2987 72.4533 11.7817 73.6506 11.7817C74.2338 11.7817 74.6883 11.8459 75.1745 11.9442V12.4257ZM75.1745 10.8495C74.6883 10.7191 74.0398 10.6569 73.4567 10.6569C71.3832 10.6569 70.1502 11.6533 70.1502 13.2951C70.1502 14.7449 71.3186 15.7092 73.0028 15.7092C74.0075 15.7092 74.819 15.324 75.3685 14.6466C75.5968 15.324 76.1786 15.7092 76.9571 15.7092C77.2823 15.7092 77.6379 15.645 77.8641 15.5487L77.7025 14.3242C77.5746 14.3563 77.4116 14.3898 77.2823 14.3898C76.8924 14.3898 76.7294 14.1958 76.7294 13.8106V10.4302C76.7294 8.628 75.5321 7.53329 73.5536 7.53329C72.5806 7.53329 71.4782 7.79008 70.5381 8.24148L71.0243 9.49802C71.7065 9.11149 72.5179 8.88479 73.2951 8.88479C74.5247 8.88479 75.1745 9.43382 75.1745 10.4944V10.8495ZM59.8113 7.72789H58.2241V15.548H59.8113V7.72789ZM59.0336 6.60108C59.6154 6.60108 60.039 6.18246 60.039 5.60267C60.039 5.02355 59.6154 4.60627 59.0336 4.60627C58.4504 4.60627 57.9979 5.02355 57.9979 5.60267C57.9979 6.18246 58.4504 6.60108 59.0336 6.60108ZM81.1369 14.3563C80.5874 14.3563 80.3935 14.133 80.3935 13.5197V4.41033H78.8029V13.7464C78.8029 15.0017 79.5174 15.7092 80.846 15.7092C81.1706 15.7092 81.5261 15.645 81.7524 15.5487L81.5908 14.2935C81.4615 14.3242 81.2662 14.3563 81.1369 14.3563ZM54.1062 8.94765C54.7561 8.94765 55.5022 9.23989 56.1184 9.69061L56.8295 8.5317C56.1184 7.92049 55.0483 7.53329 54.0429 7.53329C51.7419 7.53329 50.0556 9.23989 50.0556 11.6212C50.0556 14.0995 51.6126 15.7092 53.9446 15.7092C55.0483 15.7092 56.183 15.324 56.8295 14.7128L56.1184 13.5839C55.5332 14.0654 54.8867 14.2935 54.1709 14.2935C52.6496 14.2935 51.6752 13.263 51.6752 11.6212C51.6752 10.0129 52.6496 8.94765 54.1062 8.94765ZM45.8428 7.53329C44.8064 7.53329 43.898 7.98468 43.3148 8.7243L43.1855 7.72789H41.8555V15.5487H43.4441V11.1705C43.4441 9.85111 44.2859 8.94765 45.4872 8.94765C46.5553 8.94765 47.2374 9.62641 47.2374 10.687V15.5487H48.8246V10.4944C48.8246 8.7243 47.6253 7.53329 45.8428 7.53329ZM39.7821 15.5487V7.72789H38.1949V15.5487H39.7821ZM39.0043 6.60108C39.5882 6.60108 40.0097 6.18246 40.0097 5.60267C40.0097 5.02355 39.5882 4.60627 39.0043 4.60627C38.4211 4.60627 37.9666 5.02355 37.9666 5.60267C37.9666 6.18246 38.4211 6.60108 39.0043 6.60108ZM35.8918 7.5995C34.9847 7.5995 34.143 8.01478 33.6891 8.7243L33.5598 7.72789H32.2291V15.5487H33.8184V11.3323C33.8184 9.81901 34.5322 9.01653 35.8918 9.01653C36.1214 9.01653 36.4447 9.07739 36.7679 9.14359L36.9632 7.79008C36.6386 7.66169 36.281 7.5995 35.8918 7.5995ZM25.1327 6.28009H27.1092C28.6008 6.28009 29.4755 7.01837 29.4755 8.33777C29.4755 9.65851 28.6008 10.3981 27.1092 10.3981H25.1327V6.28009ZM23.4795 4.89516V15.5487H25.1327V11.7817H27.3354C29.6048 11.7817 31.1288 10.3981 31.1288 8.33777C31.1288 6.2801 29.6048 4.89516 27.3354 4.89516H23.4795ZM65.3225 14.2935C64.6081 14.2935 63.8309 13.939 63.441 13.4576V11.1043C63.441 9.78691 64.2525 8.94765 65.4821 8.94765C66.7805 8.94765 67.5899 9.91664 67.5899 11.4607C67.5899 13.263 66.7481 14.2935 65.3225 14.2935ZM65.8074 7.53329C64.802 7.53329 63.8633 7.95258 63.2794 8.7243L63.1501 7.72789H61.8215V18.7024H63.4087V14.9375C63.8936 15.3882 64.802 15.7092 65.5791 15.7092C67.7515 15.7092 69.2108 13.9711 69.2108 11.4607C69.2108 9.11149 67.8485 7.53329 65.8074 7.53329Z" fill="white" fill-opacity="0.2"/>
<path d="M0 11.1925C0 17.837 5.13272 23.3841 11.7914 24V15.5473C8.67217 15.2564 6.52938 12.968 6.52938 9.93597C6.52938 6.99891 8.51056 4.87102 11.2385 4.87102C13.7389 4.87102 15.4292 6.4198 15.4292 8.71019C15.4292 10.7418 14.1302 12.0659 11.7914 12.419V15.5473C16.5982 15.4189 19.7175 12.5166 19.7175 8.15916C19.7175 3.45064 16.0144 0 10.9476 0C4.71117 0 0 4.83691 0 11.1925Z" fill="white" fill-opacity="0.2"/>
</svg>
