<svg width="100" height="11" viewBox="0 0 100 11" fill="none" xmlns="http://www.w3.org/2000/svg">
<g clip-path="url(#clip0)">
<path d="M38.1734 7.47597C37.6449 8.02975 36.89 8.38215 36.0848 8.38215C34.4995 8.38215 33.191 7.07323 33.191 5.48741C33.191 3.9016 34.4995 2.59268 36.0848 2.59268C36.8145 2.59268 37.4939 2.86957 37.9972 3.32265C38.1482 3.44851 38.425 3.7254 38.425 3.7254L40.1864 1.83753C39.1799 0.704806 37.7204 0 36.0848 0C33.0651 0 30.5991 2.44165 30.5991 5.48741C30.5991 8.50801 33.04 10.9748 36.0848 10.9748C37.7959 10.9748 39.3309 10.2197 40.3123 8.9611L38.5508 7.07323C38.5256 7.0984 38.2992 7.35011 38.1734 7.47597Z" fill="white" fill-opacity="0.2"/>
<path d="M59.0083 7.47597C58.4799 8.02975 57.725 8.38215 56.9197 8.38215C55.3344 8.38215 54.0259 7.07323 54.0259 5.48741C54.0259 3.9016 55.3344 2.59268 56.9197 2.59268C57.6495 2.59268 58.3289 2.86957 58.8322 3.32265C58.9832 3.44851 59.26 3.7254 59.26 3.7254L61.0214 1.83753C60.0149 0.704806 58.5554 0 56.9197 0C53.9001 0 51.4341 2.44165 51.4341 5.48741C51.4341 8.50801 53.8749 10.9748 56.9197 10.9748C58.6309 10.9748 60.1658 10.2197 61.1472 8.9611L59.3858 7.07323C59.3858 7.0984 59.1341 7.35011 59.0083 7.47597Z" fill="white" fill-opacity="0.2"/>
<path d="M7.42325 5.26138C8.3543 4.85863 9.03372 4.12865 9.03372 2.92042V2.89524C9.03372 2.16527 8.78208 1.61149 8.3543 1.18357C7.72521 0.579453 6.79416 0.227051 5.48566 0.227051H0V10.7488H5.51082C8.02718 10.7488 9.48666 9.64124 9.48666 7.85405V7.82888C9.48666 6.41927 8.68143 5.68929 7.42325 5.26138ZM2.94414 2.56801H4.8314C5.71213 2.56801 6.13991 2.92042 6.13991 3.47419V3.49936C6.13991 4.12865 5.6618 4.40554 4.75591 4.40554H2.91897L2.94414 2.56801ZM6.59285 7.45131C6.59285 8.0806 6.08958 8.40783 5.18369 8.40783H2.91897V6.46961H5.13337C6.11475 6.46961 6.56769 6.87236 6.59285 7.45131Z" fill="white" fill-opacity="0.2"/>
<path d="M13.7391 0.226562H10.7949V10.7483H18.4698V8.23114H13.7391V0.226562Z" fill="white" fill-opacity="0.2"/>
<path d="M68.7721 4.2288H65.0227V0.276855H62.0786V10.8238H65.0227V6.82148H68.7721V10.8238H71.6911V0.302027H68.7721V4.2288Z" fill="white" fill-opacity="0.2"/>
<path d="M79.9444 0.201294H77.1261L72.647 10.8237H75.7169L76.4718 8.93585H80.5232L81.2781 10.8237H84.3984L79.9444 0.201294ZM77.3022 6.6704L78.4849 3.67498L79.6676 6.6704H77.3022Z" fill="white" fill-opacity="0.2"/>
<path d="M88.2486 0.302124H85.3296V10.849H88.2486V0.302124Z" fill="white" fill-opacity="0.2"/>
<path d="M97.0808 0.302124V5.86505L92.7275 0.302124H89.9595V10.8239H92.9036V5.05956L97.4079 10.8239H99.9997V0.302124H97.0808Z" fill="white" fill-opacity="0.2"/>
<path d="M51.686 0.251709H48.2134L44.5899 4.53088V0.251709H41.6709V10.7986H44.5899V8.08008L45.6719 6.89702L48.616 10.7986H52.0886L47.5843 4.7826L51.686 0.251709Z" fill="white" fill-opacity="0.2"/>
<path d="M24.3084 0C21.2888 0 18.8228 2.44165 18.8228 5.48741C18.8228 8.50801 21.2636 10.9748 24.3084 10.9748C27.328 10.9748 29.7941 8.53318 29.7941 5.48741C29.7941 2.46682 27.3532 0 24.3084 0ZM24.3084 8.38215C22.7231 8.38215 21.4146 7.07323 21.4146 5.48741C21.4146 3.9016 22.7231 2.59268 24.3084 2.59268C25.8937 2.59268 27.2022 3.9016 27.2022 5.48741C27.2022 7.07323 25.8937 8.38215 24.3084 8.38215Z" fill="white" fill-opacity="0.2"/>
</g>
<defs>
<clipPath id="clip0">
<rect width="100" height="11" fill="white"/>
</clipPath>
</defs>
</svg>
