<svg width="510" height="248" viewBox="0 0 510 248" fill="none" xmlns="http://www.w3.org/2000/svg">
<rect width="510" height="248" rx="20" fill="url(#paint0_linear)"/>
<rect x="0.5" y="0.5" width="509" height="247" rx="19.5" stroke="url(#paint1_linear)" stroke-opacity="0.7"/>
<path d="M34.404 214.144C33.708 214.144 33.092 213.952 32.556 213.568C32.02 213.184 31.604 212.644 31.308 211.948C31.012 211.244 30.864 210.436 30.864 209.524C30.864 208.612 31.012 207.808 31.308 207.112C31.604 206.416 32.016 205.876 32.544 205.492C33.08 205.108 33.696 204.916 34.392 204.916C35.088 204.916 35.7 205.108 36.228 205.492C36.764 205.876 37.18 206.416 37.476 207.112C37.772 207.808 37.92 208.612 37.92 209.524C37.92 210.436 37.772 211.244 37.476 211.948C37.188 212.644 36.776 213.184 36.24 213.568C35.712 213.952 35.1 214.144 34.404 214.144ZM31.824 209.524C31.824 210.26 31.932 210.908 32.148 211.468C32.364 212.028 32.664 212.464 33.048 212.776C33.44 213.088 33.892 213.244 34.404 213.244C34.908 213.244 35.352 213.092 35.736 212.788C36.128 212.476 36.432 212.04 36.648 211.48C36.864 210.912 36.972 210.26 36.972 209.524C36.972 208.788 36.864 208.14 36.648 207.58C36.432 207.02 36.128 206.588 35.736 206.284C35.352 205.972 34.904 205.816 34.392 205.816C33.888 205.816 33.44 205.972 33.048 206.284C32.664 206.588 32.364 207.02 32.148 207.58C31.932 208.14 31.824 208.788 31.824 209.524Z" fill="white" fill-opacity="0.5"/>
<path d="M33.624 172.144C32.928 172.144 32.308 171.968 31.764 171.616C31.228 171.256 30.848 170.772 30.624 170.164L31.356 169.804C31.54 170.26 31.84 170.624 32.256 170.896C32.672 171.168 33.128 171.304 33.624 171.304C34.008 171.304 34.356 171.212 34.668 171.028C34.98 170.844 35.224 170.596 35.4 170.284C35.576 169.964 35.664 169.608 35.664 169.216C35.664 168.816 35.572 168.46 35.388 168.148C35.212 167.828 34.968 167.58 34.656 167.404C34.352 167.22 34.012 167.128 33.636 167.128C33.252 167.128 32.892 167.216 32.556 167.392C32.22 167.568 31.976 167.788 31.824 168.052L31.068 167.908L31.74 163.048H36.264V163.888H32.412L32.004 166.78C32.476 166.436 33.036 166.264 33.684 166.264C34.244 166.264 34.748 166.396 35.196 166.66C35.644 166.924 35.992 167.284 36.24 167.74C36.496 168.188 36.624 168.68 36.624 169.216C36.624 169.768 36.492 170.268 36.228 170.716C35.972 171.156 35.616 171.504 35.16 171.76C34.704 172.016 34.192 172.144 33.624 172.144ZM41.7985 172.144C41.1025 172.144 40.4865 171.952 39.9505 171.568C39.4145 171.184 38.9985 170.644 38.7025 169.948C38.4065 169.244 38.2585 168.436 38.2585 167.524C38.2585 166.612 38.4065 165.808 38.7025 165.112C38.9985 164.416 39.4105 163.876 39.9385 163.492C40.4745 163.108 41.0905 162.916 41.7865 162.916C42.4825 162.916 43.0945 163.108 43.6225 163.492C44.1585 163.876 44.5745 164.416 44.8705 165.112C45.1665 165.808 45.3145 166.612 45.3145 167.524C45.3145 168.436 45.1665 169.244 44.8705 169.948C44.5825 170.644 44.1705 171.184 43.6345 171.568C43.1065 171.952 42.4945 172.144 41.7985 172.144ZM39.2185 167.524C39.2185 168.26 39.3265 168.908 39.5425 169.468C39.7585 170.028 40.0585 170.464 40.4425 170.776C40.8345 171.088 41.2865 171.244 41.7985 171.244C42.3025 171.244 42.7465 171.092 43.1305 170.788C43.5225 170.476 43.8265 170.04 44.0425 169.48C44.2585 168.912 44.3665 168.26 44.3665 167.524C44.3665 166.788 44.2585 166.14 44.0425 165.58C43.8265 165.02 43.5225 164.588 43.1305 164.284C42.7465 163.972 42.2985 163.816 41.7865 163.816C41.2825 163.816 40.8345 163.972 40.4425 164.284C40.0585 164.588 39.7585 165.02 39.5425 165.58C39.3265 166.14 39.2185 166.788 39.2185 167.524Z" fill="white" fill-opacity="0.5"/>
<path d="M32.172 121.9H30.492V121.06H33.132V130H32.172V121.9ZM38.8571 130.144C38.1611 130.144 37.5451 129.952 37.0091 129.568C36.4731 129.184 36.0571 128.644 35.7611 127.948C35.4651 127.244 35.3171 126.436 35.3171 125.524C35.3171 124.612 35.4651 123.808 35.7611 123.112C36.0571 122.416 36.4691 121.876 36.9971 121.492C37.5331 121.108 38.1491 120.916 38.8451 120.916C39.5411 120.916 40.1531 121.108 40.6811 121.492C41.2171 121.876 41.6331 122.416 41.9291 123.112C42.2251 123.808 42.3731 124.612 42.3731 125.524C42.3731 126.436 42.2251 127.244 41.9291 127.948C41.6411 128.644 41.2291 129.184 40.6931 129.568C40.1651 129.952 39.5531 130.144 38.8571 130.144ZM36.2771 125.524C36.2771 126.26 36.3851 126.908 36.6011 127.468C36.8171 128.028 37.1171 128.464 37.5011 128.776C37.8931 129.088 38.3451 129.244 38.8571 129.244C39.3611 129.244 39.8051 129.092 40.1891 128.788C40.5811 128.476 40.8851 128.04 41.1011 127.48C41.3171 126.912 41.4251 126.26 41.4251 125.524C41.4251 124.788 41.3171 124.14 41.1011 123.58C40.8851 123.02 40.5811 122.588 40.1891 122.284C39.8051 121.972 39.3571 121.816 38.8451 121.816C38.3411 121.816 37.8931 121.972 37.5011 122.284C37.1171 122.588 36.8171 123.02 36.6011 123.58C36.3851 124.14 36.2771 124.788 36.2771 125.524ZM47.6462 130.144C46.9502 130.144 46.3342 129.952 45.7982 129.568C45.2622 129.184 44.8462 128.644 44.5502 127.948C44.2542 127.244 44.1062 126.436 44.1062 125.524C44.1062 124.612 44.2542 123.808 44.5502 123.112C44.8462 122.416 45.2582 121.876 45.7862 121.492C46.3222 121.108 46.9382 120.916 47.6342 120.916C48.3302 120.916 48.9422 121.108 49.4702 121.492C50.0062 121.876 50.4222 122.416 50.7182 123.112C51.0142 123.808 51.1622 124.612 51.1622 125.524C51.1622 126.436 51.0142 127.244 50.7182 127.948C50.4302 128.644 50.0182 129.184 49.4822 129.568C48.9542 129.952 48.3422 130.144 47.6462 130.144ZM45.0662 125.524C45.0662 126.26 45.1742 126.908 45.3902 127.468C45.6062 128.028 45.9062 128.464 46.2902 128.776C46.6822 129.088 47.1342 129.244 47.6462 129.244C48.1502 129.244 48.5942 129.092 48.9782 128.788C49.3702 128.476 49.6742 128.04 49.8902 127.48C50.1062 126.912 50.2142 126.26 50.2142 125.524C50.2142 124.788 50.1062 124.14 49.8902 123.58C49.6742 123.02 49.3702 122.588 48.9782 122.284C48.5942 121.972 48.1462 121.816 47.6342 121.816C47.1302 121.816 46.6822 121.972 46.2902 122.284C45.9062 122.588 45.6062 123.02 45.3902 123.58C45.1742 124.14 45.0662 124.788 45.0662 125.524Z" fill="white" fill-opacity="0.5"/>
<path d="M32.172 79.9H30.492V79.06H33.132V88H32.172V79.9ZM38.0771 88.144C37.3811 88.144 36.7611 87.968 36.2171 87.616C35.6811 87.256 35.3011 86.772 35.0771 86.164L35.8091 85.804C35.9931 86.26 36.2931 86.624 36.7091 86.896C37.1251 87.168 37.5811 87.304 38.0771 87.304C38.4611 87.304 38.8091 87.212 39.1211 87.028C39.4331 86.844 39.6771 86.596 39.8531 86.284C40.0291 85.964 40.1171 85.608 40.1171 85.216C40.1171 84.816 40.0251 84.46 39.8411 84.148C39.6651 83.828 39.4211 83.58 39.1091 83.404C38.8051 83.22 38.4651 83.128 38.0891 83.128C37.7051 83.128 37.3451 83.216 37.0091 83.392C36.6731 83.568 36.4291 83.788 36.2771 84.052L35.5211 83.908L36.1931 79.048H40.7171V79.888H36.8651L36.4571 82.78C36.9291 82.436 37.4891 82.264 38.1371 82.264C38.6971 82.264 39.2011 82.396 39.6491 82.66C40.0971 82.924 40.4451 83.284 40.6931 83.74C40.9491 84.188 41.0771 84.68 41.0771 85.216C41.0771 85.768 40.9451 86.268 40.6811 86.716C40.4251 87.156 40.0691 87.504 39.6131 87.76C39.1571 88.016 38.6451 88.144 38.0771 88.144ZM46.2517 88.144C45.5557 88.144 44.9397 87.952 44.4037 87.568C43.8677 87.184 43.4517 86.644 43.1557 85.948C42.8597 85.244 42.7117 84.436 42.7117 83.524C42.7117 82.612 42.8597 81.808 43.1557 81.112C43.4517 80.416 43.8637 79.876 44.3917 79.492C44.9277 79.108 45.5437 78.916 46.2397 78.916C46.9357 78.916 47.5477 79.108 48.0757 79.492C48.6117 79.876 49.0277 80.416 49.3237 81.112C49.6197 81.808 49.7677 82.612 49.7677 83.524C49.7677 84.436 49.6197 85.244 49.3237 85.948C49.0357 86.644 48.6237 87.184 48.0877 87.568C47.5597 87.952 46.9477 88.144 46.2517 88.144ZM43.6717 83.524C43.6717 84.26 43.7797 84.908 43.9957 85.468C44.2117 86.028 44.5117 86.464 44.8957 86.776C45.2877 87.088 45.7397 87.244 46.2517 87.244C46.7557 87.244 47.1997 87.092 47.5837 86.788C47.9757 86.476 48.2797 86.04 48.4957 85.48C48.7117 84.912 48.8197 84.26 48.8197 83.524C48.8197 82.788 48.7117 82.14 48.4957 81.58C48.2797 81.02 47.9757 80.588 47.5837 80.284C47.1997 79.972 46.7517 79.816 46.2397 79.816C45.7357 79.816 45.2877 79.972 44.8957 80.284C44.5117 80.588 44.2117 81.02 43.9957 81.58C43.7797 82.14 43.6717 82.788 43.6717 83.524Z" fill="white" fill-opacity="0.5"/>
<path d="M30.696 45.4L33.192 42.652L33.552 42.256C34.04 41.728 34.392 41.328 34.608 41.056C34.832 40.784 35.004 40.52 35.124 40.264C35.244 40 35.304 39.72 35.304 39.424C35.304 38.896 35.148 38.488 34.836 38.2C34.532 37.904 34.116 37.756 33.588 37.756C33.052 37.756 32.6 37.908 32.232 38.212C31.872 38.516 31.628 38.94 31.5 39.484L30.624 39.292C30.784 38.564 31.128 37.988 31.656 37.564C32.184 37.132 32.824 36.916 33.576 36.916C34.104 36.916 34.568 37.024 34.968 37.24C35.376 37.448 35.692 37.744 35.916 38.128C36.148 38.512 36.264 38.944 36.264 39.424C36.264 39.896 36.12 40.356 35.832 40.804C35.552 41.252 35.056 41.872 34.344 42.664L32.076 45.16H36.504V46H30.696V45.4ZM41.5993 46.144C40.9033 46.144 40.2873 45.952 39.7513 45.568C39.2153 45.184 38.7993 44.644 38.5033 43.948C38.2073 43.244 38.0593 42.436 38.0593 41.524C38.0593 40.612 38.2073 39.808 38.5033 39.112C38.7993 38.416 39.2113 37.876 39.7393 37.492C40.2753 37.108 40.8913 36.916 41.5873 36.916C42.2833 36.916 42.8953 37.108 43.4233 37.492C43.9593 37.876 44.3753 38.416 44.6713 39.112C44.9673 39.808 45.1153 40.612 45.1153 41.524C45.1153 42.436 44.9673 43.244 44.6713 43.948C44.3833 44.644 43.9713 45.184 43.4353 45.568C42.9073 45.952 42.2953 46.144 41.5993 46.144ZM39.0193 41.524C39.0193 42.26 39.1273 42.908 39.3433 43.468C39.5593 44.028 39.8593 44.464 40.2433 44.776C40.6353 45.088 41.0873 45.244 41.5993 45.244C42.1033 45.244 42.5473 45.092 42.9313 44.788C43.3233 44.476 43.6273 44.04 43.8433 43.48C44.0593 42.912 44.1673 42.26 44.1673 41.524C44.1673 40.788 44.0593 40.14 43.8433 39.58C43.6273 39.02 43.3233 38.588 42.9313 38.284C42.5473 37.972 42.0993 37.816 41.5873 37.816C41.0833 37.816 40.6353 37.972 40.2433 38.284C39.8593 38.588 39.5593 39.02 39.3433 39.58C39.1273 40.14 39.0193 40.788 39.0193 41.524ZM50.3884 46.144C49.6924 46.144 49.0764 45.952 48.5404 45.568C48.0044 45.184 47.5884 44.644 47.2924 43.948C46.9964 43.244 46.8484 42.436 46.8484 41.524C46.8484 40.612 46.9964 39.808 47.2924 39.112C47.5884 38.416 48.0004 37.876 48.5284 37.492C49.0644 37.108 49.6804 36.916 50.3764 36.916C51.0724 36.916 51.6844 37.108 52.2124 37.492C52.7484 37.876 53.1644 38.416 53.4604 39.112C53.7564 39.808 53.9044 40.612 53.9044 41.524C53.9044 42.436 53.7564 43.244 53.4604 43.948C53.1724 44.644 52.7604 45.184 52.2244 45.568C51.6964 45.952 51.0844 46.144 50.3884 46.144ZM47.8084 41.524C47.8084 42.26 47.9164 42.908 48.1324 43.468C48.3484 44.028 48.6484 44.464 49.0324 44.776C49.4244 45.088 49.8764 45.244 50.3884 45.244C50.8924 45.244 51.3364 45.092 51.7204 44.788C52.1124 44.476 52.4164 44.04 52.6324 43.48C52.8484 42.912 52.9564 42.26 52.9564 41.524C52.9564 40.788 52.8484 40.14 52.6324 39.58C52.4164 39.02 52.1124 38.588 51.7204 38.284C51.3364 37.972 50.8884 37.816 50.3764 37.816C49.8724 37.816 49.4244 37.972 49.0324 38.284C48.6484 38.588 48.3484 39.02 48.1324 39.58C47.9164 40.14 47.8084 40.788 47.8084 41.524Z" fill="white" fill-opacity="0.5"/>
<path d="M97 185L54 210.5V216.5H488V62L473.5 84.5L470.5 70.5L455 49.5L429 101H417L402.5 57L364.5 128.5L350 93.5L337 125L313.5 171.5L291 163V144.5L260 97C258.667 131 256 200.1 256 204.5C256 208.9 225.333 189.333 210 179L189.5 125L142 151L134 134L108 204.5L97 185Z" fill="url(#paint2_linear)"/>
<path d="M54 210.5L97 185L108 204.5L134 134L142 151L189.5 125L210 179C225.333 189.333 256 208.9 256 204.5C256 200.1 258.667 131 260 97L291 144.5V163L313.5 171.5L337 125L350 93.5L364.5 128.5L402.5 57L417 101H429L455 49.5L470.5 70.5L473.5 84.5L488 62" stroke="#32D4D1" stroke-width="2" stroke-linecap="round" stroke-linejoin="round"/>
<path d="M53.5 193.5L69.5 178.5L77.5 145.5L82 154L102 173L109 154H119.5L139 191.5L187 162.5L184 136L213 149L216 120L262.5 166.5L272 58L300 129.5L317 100.5L325 109.5L368 140V114.5L399 129.5L421.5 120L428 129.5L450 106L486 136" stroke="white" stroke-opacity="0.08" stroke-width="2" stroke-linecap="round" stroke-linejoin="round" stroke-dasharray="8 10"/>
<defs>
<linearGradient id="paint0_linear" x1="255" y1="0" x2="255" y2="248" gradientUnits="userSpaceOnUse">
<stop stop-color="#1B1923"/>
<stop offset="1" stop-color="#1B1923" stop-opacity="0"/>
</linearGradient>
<linearGradient id="paint1_linear" x1="413.1" y1="27.1103" x2="505.221" y2="249.975" gradientUnits="userSpaceOnUse">
<stop stop-color="#1A1822"/>
<stop offset="1" stop-color="#707A9E" stop-opacity="0.4"/>
</linearGradient>
<linearGradient id="paint2_linear" x1="226" y1="-22.5" x2="271" y2="216.5" gradientUnits="userSpaceOnUse">
<stop stop-color="#32D4D1"/>
<stop offset="0.935347" stop-color="#1B1923" stop-opacity="0"/>
</linearGradient>
</defs>
</svg>
