<svg width="155" height="35" viewBox="0 0 155 35" fill="none" xmlns="http://www.w3.org/2000/svg">
<path d="M17.5219 0L17.5219 11.0376C14.1767 11.086 11.4799 13.8095 11.4799 17.162C11.4799 20.5145 14.1767 23.2379 17.5219 23.2863V35C13.331 35 9.29486 33.5005 6.13266 30.7989C5.78846 30.5048 5.45461 30.1965 5.13205 29.8744C1.84605 26.5925 -2.03131e-07 22.1413 0 17.5C2.03131e-07 12.8587 1.84605 8.40752 5.13204 5.12563C5.45461 4.80347 5.78846 4.49516 6.13266 4.2011C9.29486 1.49953 13.331 4.49058e-07 17.5219 0Z" fill="white"/>
<path d="M23.6546 23.287C27.0415 23.287 29.7872 20.5447 29.7872 17.162C29.7872 13.7792 27.0415 11.037 23.6546 11.037C20.2676 11.037 17.5219 13.7792 17.5219 17.162C17.5219 20.5447 20.2676 23.287 23.6546 23.287Z" fill="white"/>
<path d="M44.383 26.2681C42.8043 26.2681 41.3745 25.8957 40.0936 25.1511C38.8128 24.4064 37.8074 23.3787 37.0777 22.0681C36.3479 20.7574 35.983 19.2904 35.983 17.667C35.983 16.0436 36.3479 14.5766 37.0777 13.266C37.8074 11.9553 38.8053 10.9351 40.0713 10.2053C41.3521 9.46064 42.7894 9.0883 44.383 9.0883C45.5447 9.0883 46.6096 9.28936 47.5777 9.69149C48.5606 10.0787 49.3872 10.6074 50.0574 11.2777C50.7277 11.9479 51.2117 12.7 51.5096 13.534L48.4489 15.0085C48.1511 14.1745 47.6447 13.5043 46.9298 12.9979C46.2149 12.4766 45.366 12.216 44.383 12.216C43.4149 12.216 42.5511 12.4468 41.7915 12.9085C41.0468 13.3553 40.466 13.9957 40.0489 14.8298C39.6468 15.6489 39.4457 16.5947 39.4457 17.667C39.4457 18.7394 39.6468 19.6926 40.0489 20.5266C40.466 21.3457 41.0468 21.9862 41.7915 22.4479C42.5511 22.9096 43.4149 23.1404 44.383 23.1404C45.366 23.1404 46.2149 22.8872 46.9298 22.3809C47.6447 21.8596 48.1511 21.1819 48.4489 20.3479L51.5096 21.8223C51.2117 22.6564 50.7277 23.4085 50.0574 24.0787C49.3872 24.7489 48.5606 25.2851 47.5777 25.6872C46.6096 26.0745 45.5447 26.2681 44.383 26.2681ZM53.4858 13.8021H56.6135V15.634C56.9114 14.9191 57.3358 14.4128 57.8869 14.1149C58.438 13.817 59.1156 13.6681 59.9199 13.6681H60.6348V16.5723H59.5848C58.7507 16.5723 58.0805 16.8255 57.5741 17.3319C57.0826 17.8383 56.8369 18.5383 56.8369 19.4319V26H53.4858V13.8021ZM65.8343 25.7766L61.1205 13.8021H64.7173L67.5992 21.6436L70.4811 13.8021H74.0779L67.5545 30.4681H63.9801L65.8343 25.7766ZM75.5426 13.8021H78.6703V15.0755C79.0873 14.584 79.616 14.2043 80.2565 13.9362C80.8969 13.6681 81.6118 13.534 82.4011 13.534C83.548 13.534 84.5905 13.817 85.5288 14.383C86.482 14.9489 87.2341 15.716 87.7852 16.684C88.3363 17.6521 88.6118 18.7245 88.6118 19.9011C88.6118 21.0777 88.3363 22.15 87.7852 23.1181C87.249 24.0862 86.5043 24.8532 85.5511 25.4191C84.6128 25.9851 83.5554 26.2681 82.3788 26.2681C81.6937 26.2681 81.0458 26.1638 80.4352 25.9553C79.8394 25.7468 79.3256 25.4489 78.8937 25.0617V30.4681H75.5426V13.8021ZM78.8937 19.9011C78.8937 20.8989 79.1767 21.7106 79.7426 22.3362C80.3235 22.9468 81.0682 23.2521 81.9767 23.2521C82.9001 23.2521 83.6597 22.9394 84.2554 22.3138C84.8511 21.6883 85.149 20.884 85.149 19.9011C85.149 18.933 84.8511 18.1362 84.2554 17.5106C83.6597 16.8702 82.9001 16.55 81.9767 16.55C81.0682 16.55 80.3235 16.8628 79.7426 17.4883C79.1767 18.1138 78.8937 18.9181 78.8937 19.9011ZM96.2318 26.134C94.7573 26.134 93.6105 25.7394 92.7914 24.95C91.9871 24.1457 91.585 23.0287 91.585 21.5989V16.7064H89.5297V13.8021H89.6414C90.2669 13.8021 90.7435 13.6457 91.0712 13.333C91.4137 13.0202 91.585 12.5511 91.585 11.9255V11.0319H94.936V13.8021H97.7956V16.7064H94.936V21.3755C94.936 22.0011 95.1073 22.4702 95.4499 22.783C95.7924 23.0809 96.3137 23.2298 97.0137 23.2298C97.2222 23.2298 97.4829 23.2074 97.7956 23.1628V26.0223C97.3041 26.0968 96.7829 26.134 96.2318 26.134ZM105.814 26.2681C104.622 26.2681 103.52 25.9926 102.507 25.4415C101.509 24.8904 100.72 24.1309 100.139 23.1628C99.5582 22.1947 99.2678 21.1074 99.2678 19.9011C99.2678 18.6947 99.5582 17.6074 100.139 16.6394C100.72 15.6713 101.509 14.9117 102.507 14.3606C103.52 13.8096 104.622 13.534 105.814 13.534C107.005 13.534 108.1 13.8096 109.098 14.3606C110.095 14.9117 110.885 15.6713 111.466 16.6394C112.047 17.6074 112.337 18.6947 112.337 19.9011C112.337 21.1074 112.047 22.1947 111.466 23.1628C110.885 24.1309 110.095 24.8904 109.098 25.4415C108.1 25.9926 107.005 26.2681 105.814 26.2681ZM102.731 19.9011C102.731 20.884 103.014 21.6883 103.58 22.3138C104.16 22.9394 104.905 23.2521 105.814 23.2521C106.722 23.2521 107.459 22.9394 108.025 22.3138C108.591 21.6883 108.874 20.884 108.874 19.9011C108.874 18.9181 108.584 18.1138 108.003 17.4883C107.437 16.8628 106.707 16.55 105.814 16.55C104.905 16.55 104.16 16.8628 103.58 17.4883C103.014 18.1138 102.731 18.9181 102.731 19.9011ZM120.365 26.2681C119.174 26.2681 118.072 25.9926 117.059 25.4415C116.061 24.8904 115.272 24.1309 114.691 23.1628C114.11 22.1947 113.82 21.1074 113.82 19.9011C113.82 18.6947 114.11 17.6074 114.691 16.6394C115.272 15.6713 116.061 14.9117 117.059 14.3606C118.072 13.8096 119.174 13.534 120.365 13.534C121.557 13.534 122.652 13.8096 123.649 14.3606C124.647 14.9117 125.437 15.6713 126.018 16.6394C126.598 17.6074 126.889 18.6947 126.889 19.9011C126.889 21.1074 126.598 22.1947 126.018 23.1628C125.437 24.1309 124.647 24.8904 123.649 25.4415C122.652 25.9926 121.557 26.2681 120.365 26.2681ZM117.282 19.9011C117.282 20.884 117.565 21.6883 118.131 22.3138C118.712 22.9394 119.457 23.2521 120.365 23.2521C121.274 23.2521 122.011 22.9394 122.577 22.3138C123.143 21.6883 123.426 20.884 123.426 19.9011C123.426 18.9181 123.136 18.1138 122.555 17.4883C121.989 16.8628 121.259 16.55 120.365 16.55C119.457 16.55 118.712 16.8628 118.131 17.4883C117.565 18.1138 117.282 18.9181 117.282 19.9011ZM128.863 13.8021H131.991V15.2766C132.303 14.6957 132.75 14.2638 133.331 13.9809C133.927 13.683 134.619 13.534 135.409 13.534C136.317 13.534 137.121 13.7277 137.821 14.1149C138.521 14.5021 139.065 15.0457 139.452 15.7457C139.84 16.4457 140.033 17.25 140.033 18.1585V26H136.682V18.8734C136.682 18.1734 136.474 17.6149 136.057 17.1979C135.654 16.766 135.118 16.55 134.448 16.55C133.778 16.55 133.234 16.766 132.817 17.1979C132.415 17.6149 132.214 18.1734 132.214 18.8734V26H128.863V13.8021Z" fill="white"/>
</svg>
